<svg width="25" height="24" viewBox="0 0 25 24" fill="none" xmlns="http://www.w3.org/2000/svg">
<g clip-path="url(#clip0_263_218)">
<path fill-rule="evenodd" clip-rule="evenodd" d="M11.1362 20.106C11.6542 20.683 12.3192 21 13.0092 21H13.0102C13.7032 21 14.3712 20.683 14.8902 20.105C15.1682 19.798 15.6422 19.773 15.9492 20.05C16.2572 20.327 16.2822 20.802 16.0052 21.109C15.1972 22.006 14.1342 22.5 13.0102 22.5H13.0082C11.8872 22.499 10.8262 22.005 10.0212 21.108C9.74424 20.801 9.76924 20.326 10.0772 20.05C10.3852 19.772 10.8592 19.797 11.1362 20.106ZM13.059 1C17.504 1 20.49 4.462 20.49 7.695C20.49 9.358 20.913 10.063 21.362 10.811C21.806 11.549 22.309 12.387 22.309 13.971C21.96 18.018 17.735 18.348 13.059 18.348C8.38304 18.348 4.15704 18.018 3.81202 14.035C3.80904 12.387 4.31204 11.549 4.75604 10.811L4.91278 10.5472C5.29871 9.88386 5.62804 9.16235 5.62804 7.695C5.62804 4.462 8.61404 1 13.059 1ZM13.059 2.5C9.56404 2.5 7.12804 5.238 7.12804 7.695C7.12804 9.774 6.55104 10.735 6.04104 11.583C5.63204 12.264 5.30904 12.802 5.30904 13.971C5.47604 15.857 6.72104 16.848 13.059 16.848C19.362 16.848 20.646 15.813 20.812 13.906C20.809 12.802 20.486 12.264 20.077 11.583C19.567 10.735 18.99 9.774 18.99 7.695C18.99 5.238 16.554 2.5 13.059 2.5Z" fill="#111111" fill-opacity="0.6"/>
</g>
<defs>
<clipPath id="clip0_263_218">
<rect width="24" height="24" fill="white" transform="translate(0.812012)"/>
</clipPath>
</defs>
</svg>
