<?xml version="1.0" encoding="UTF-8"?>
<svg version="1.1" xmlns="http://www.w3.org/2000/svg" width="369" height="297">
<path d="M0 0 C5.46341463 2.92682927 5.46341463 2.92682927 7 6 C7.09604392 7.54304388 7.12916901 9.09019923 7.13142776 10.63622761 C7.13526891 11.61944376 7.13911005 12.60265992 7.1430676 13.6156705 C7.14220112 14.70368164 7.14133463 15.79169278 7.14044189 16.91267395 C7.14341302 18.06241674 7.14638414 19.21215952 7.1494453 20.396743 C7.15664046 23.59782362 7.15930577 26.79887161 7.16004276 29.99995911 C7.16189051 33.44859237 7.16943645 36.89721393 7.17617798 40.34584045 C7.18977348 47.89127003 7.19578795 55.43669431 7.20018864 62.9821341 C7.20294908 67.69155315 7.20718608 72.40097014 7.21169281 77.1103878 C7.22388721 90.14355878 7.23418609 103.17672811 7.2375679 116.20990467 C7.23789725 117.46171215 7.23789725 117.46171215 7.23823325 118.73880867 C7.23856067 119.99365143 7.23856067 119.99365143 7.2388947 121.27384454 C7.23933817 122.96910274 7.23978473 124.66436094 7.24023438 126.35961914 C7.2404558 127.20052995 7.24067723 128.04144076 7.24090537 128.90783372 C7.24485398 142.53579121 7.26230913 156.16369525 7.2855939 169.79163209 C7.3092946 183.77562515 7.32176917 197.75959137 7.32293582 211.74360484 C7.32385332 219.59817615 7.32962439 227.45267783 7.34775543 235.30723 C7.36313917 241.99531248 7.36828715 248.68330382 7.36001733 255.37140063 C7.35610461 258.78467678 7.35707041 262.19776928 7.37107468 265.61102295 C7.38370506 269.30963345 7.37796558 273.00776854 7.36749268 276.70637512 C7.37554908 277.78769409 7.38360548 278.86901307 7.39190602 279.98309928 C7.33161563 289.05010567 7.33161563 289.05010567 4 293 C1.0587574 295.28763313 -2.02451149 295.34499209 -5.68292236 295.30062866 C-10.20286093 294.71419036 -14.03883785 292.51215065 -18.0546875 290.45703125 C-19.53205887 289.72526421 -19.53205887 289.72526421 -21.03927612 288.97871399 C-23.20404567 287.90546652 -25.36558458 286.82568457 -27.52429199 285.74029541 C-31.14213052 283.9288349 -34.77375975 282.14822951 -38.41113281 280.37646484 C-44.3170908 277.49724244 -50.21106408 274.59474764 -56.09659195 271.67399406 C-59.47763607 269.9964818 -62.8612783 268.32474146 -66.25146484 266.66577148 C-69.60398899 265.02508037 -72.94940878 263.37068552 -76.29027939 261.70639992 C-77.54530199 261.08405052 -78.80270204 260.46646917 -80.06259537 259.85404015 C-81.81143537 259.00279587 -83.55071618 258.13199814 -85.28955078 257.26049805 C-86.27496857 256.77405319 -87.26038635 256.28760834 -88.27566528 255.78642273 C-91.52539535 253.65548352 -93.9647369 251.29715641 -96 248 C-96.63199902 244.58504772 -96.63199902 244.58504772 -96.64164734 240.77128601 C-96.65440562 239.71343949 -96.65440562 239.71343949 -96.66742164 238.63422233 C-96.68962042 236.28256932 -96.67627735 233.93250945 -96.6628418 231.58081055 C-96.67125854 229.89010489 -96.68178525 228.19940862 -96.69425964 226.50872803 C-96.72130235 221.92374791 -96.71660768 217.3393121 -96.70455909 212.75428748 C-96.69742292 208.92242252 -96.70593067 205.09065791 -96.71446449 201.2588008 C-96.73441591 192.21516645 -96.7288501 183.17179642 -96.70678711 174.12817383 C-96.68443974 164.80989198 -96.70200223 155.49230351 -96.73983639 146.17408723 C-96.77111055 138.16449646 -96.77897366 130.15511988 -96.76788265 122.14547569 C-96.761406 117.36585958 -96.7633473 112.58664318 -96.78720665 107.80707359 C-96.80851439 103.30959017 -96.80040904 98.81308111 -96.77011299 94.31565857 C-96.76380394 92.66979462 -96.767602 91.02385443 -96.78252411 89.37804604 C-96.85840149 80.26715322 -96.68479039 72.94023824 -90 66 C-87.42184197 63.53952293 -84.75523112 61.30587079 -81.9375 59.125 C-80.42380388 57.91751271 -78.91078997 56.70916975 -77.3984375 55.5 C-76.65432617 54.91089844 -75.91021484 54.32179687 -75.14355469 53.71484375 C-72.06110557 51.24888446 -69.05995532 48.69301657 -66.0625 46.125 C-62.44362845 43.04162438 -58.79237979 40.01128484 -55.0625 37.0625 C-50.97583877 33.82501513 -47.01054938 30.46597253 -43.0625 27.0625 C-34.67905469 19.84070446 -26.12199467 12.85635526 -17.4375 6 C-16.8290625 5.51845459 -16.220625 5.03690918 -15.59375 4.54077148 C-10.18486714 0.29170152 -6.85349237 -0.86243612 0 0 Z " fill="#0540B5" transform="translate(362,2)"/>
<path d="M0 0 C3.24599248 0.84701824 5.14177445 2.06384103 7.3203125 4.60546875 C8.28577675 7.50186151 8.44906252 9.33503236 8.45732689 12.3463335 C8.46240143 13.32744061 8.46747597 14.30854772 8.47270429 15.31938535 C8.47320205 16.39991058 8.47369981 17.48043581 8.47421265 18.59370422 C8.48078603 20.31241636 8.48078603 20.31241636 8.4874922 22.06584996 C8.49856041 25.25133476 8.50510574 28.43679183 8.50967336 31.62229145 C8.51562993 35.05593349 8.52723949 38.48955743 8.53796387 41.92318726 C8.56248432 50.21717117 8.57711332 58.51116108 8.59002393 66.80517009 C8.59373575 69.14725782 8.59770898 71.48934496 8.6017766 73.8314321 C8.62701003 88.37246247 8.64906518 102.91349378 8.66150475 117.45454121 C8.66443448 120.82247738 8.66739614 124.19041351 8.67041016 127.55834961 C8.67115621 128.39544199 8.67190226 129.23253438 8.67267092 130.0949932 C8.68532944 143.6608189 8.71855965 157.22651368 8.76021199 170.79227815 C8.80261472 184.71641578 8.82619774 198.64048635 8.83142531 212.56468838 C8.83484103 220.38412495 8.84661519 228.20335681 8.87952805 236.02272987 C8.9075068 242.68078787 8.9185375 249.33859919 8.90733258 255.99671141 C8.90214047 259.39404477 8.90506732 262.79086137 8.92979813 266.18811989 C8.95236744 269.87127556 8.94424974 273.55312152 8.92831421 277.23628235 C8.94913734 278.84703194 8.94913734 278.84703194 8.97038114 280.49032193 C8.88412084 288.55936297 8.88412084 288.55936297 6.01278114 292.2457304 C3.20131391 294.70976171 1.26688713 295.65370471 -2.49276733 295.83032227 C-12.57422662 294.79377251 -23.17428141 287.52208661 -32.140625 283.04296875 C-33.82063169 282.20618399 -35.50069657 281.36951606 -37.18081665 280.53295898 C-40.68365125 278.78749861 -44.18484184 277.03878955 -47.68505859 275.28808594 C-52.16652835 273.04724895 -56.65342563 270.81751775 -61.14177513 268.59049988 C-64.605196 266.86990575 -68.06495828 265.14205551 -71.52373123 263.41213989 C-73.17702791 262.58666971 -74.831619 261.76378668 -76.48752975 260.943573 C-78.79813274 259.79807561 -81.10344069 258.64253902 -83.40771484 257.484375 C-84.42856171 256.98238083 -84.42856171 256.98238083 -85.47003174 256.47024536 C-89.17788271 254.59165378 -92.10298921 252.88341703 -94.6796875 249.60546875 C-95.18025875 246.41261482 -95.18025875 246.41261482 -95.18089294 242.55911255 C-95.18919454 241.49452893 -95.18919454 241.49452893 -95.19766384 240.40843856 C-95.2112787 238.02991157 -95.1962975 235.65243244 -95.18139648 233.27392578 C-95.18517945 231.56880243 -95.1906793 229.86368215 -95.19776917 228.15856934 C-95.2117462 223.52618932 -95.20053734 218.89417981 -95.18405795 214.26182032 C-95.17021686 209.41460529 -95.17666663 204.56741198 -95.18019104 199.72018433 C-95.18289442 191.57755559 -95.16940831 183.43507415 -95.14624023 175.29248047 C-95.11964755 165.88120157 -95.11787726 156.47016925 -95.1296286 147.05886567 C-95.14041329 138.00542749 -95.13421271 128.95207842 -95.12007332 119.89864731 C-95.11431772 116.04630296 -95.1143929 112.19402392 -95.11913872 108.34167862 C-95.12391586 103.80260968 -95.11377624 99.26381019 -95.09218407 94.72479248 C-95.08662542 93.05993432 -95.08614244 91.39505022 -95.09113693 89.73019028 C-95.09710543 87.45509322 -95.0845554 85.18081557 -95.06736755 82.90579224 C-95.06493766 81.63338243 -95.06250776 80.36097263 -95.06000423 79.05000496 C-94.32422509 72.38603864 -91.00998282 68.49626084 -86.1171875 64.23046875 C-85.58343506 63.75351562 -85.04968262 63.2765625 -84.49975586 62.78515625 C-80.54472463 59.28160722 -76.46342303 55.95432159 -72.3046875 52.6953125 C-69.22975277 50.24726179 -66.23430779 47.71601796 -63.2421875 45.16796875 C-59.25292882 41.77334968 -55.24298324 38.41170211 -51.1796875 35.10546875 C-47.13984579 31.8172255 -43.14905897 28.47792036 -39.1796875 25.10546875 C-34.32272329 20.98460255 -29.46077776 16.87314582 -24.4921875 12.88671875 C-22.45138699 11.23140278 -20.46799831 9.55305321 -18.4921875 7.82421875 C-12.70292435 2.88707347 -8.02203572 -0.80688114 0 0 Z " fill="#0540B5" transform="translate(94.6796875,-0.60546875)"/>
<path d="M0 0 C2.93087207 2.25451698 3.82814288 3.48442865 5 7 C5.09227412 8.39747712 5.13055356 9.79891574 5.13371277 11.19943237 C5.14011024 12.48214523 5.14011024 12.48214523 5.14663696 13.79077148 C5.14595718 15.1934729 5.14595718 15.1934729 5.14526367 16.62451172 C5.14862228 17.61178253 5.1519809 18.59905334 5.15544128 19.61624146 C5.16495804 22.88740286 5.16689478 26.15851311 5.16796875 29.4296875 C5.17118088 31.70028708 5.17454492 33.97088645 5.17805481 36.2414856 C5.18404793 41.00458252 5.18589453 45.76766129 5.18530273 50.53076172 C5.18520111 56.63633374 5.19885249 62.74178946 5.21607494 68.84733391 C5.2271896 73.53818294 5.2292221 78.22900381 5.22869301 82.91986465 C5.22987396 85.1709343 5.23430218 87.42200466 5.24202538 89.67306137 C5.25181414 92.82102366 5.24895149 95.96873292 5.24291992 99.11669922 C5.24853943 100.04778503 5.25415894 100.97887085 5.25994873 101.93817139 C5.2196825 110.20149719 5.2196825 110.20149719 3 114 C-7.0760442 120.43151757 -21.50933532 114.91295155 -32.48828125 112.76171875 C-34.16210676 112.43633485 -35.83595048 112.11104458 -37.5098114 111.7858429 C-40.9976761 111.10654353 -44.48456339 110.42245209 -47.97094727 109.7355957 C-52.42800885 108.85845202 -56.88830775 107.99911708 -61.34963703 107.14398479 C-64.79934568 106.4797173 -68.24657035 105.80320523 -71.69322777 105.12330055 C-73.33692599 104.80113483 -74.98149961 104.48340106 -76.6269474 104.17029381 C-78.92632341 103.73144192 -81.22167214 103.27544221 -83.5168457 102.81518555 C-84.18864868 102.69087662 -84.86045166 102.56656769 -85.5526123 102.43849182 C-90.41910422 101.4351514 -94.44790616 99.55209384 -98 96 C-98.12036823 94.00226455 -98.1702438 92.00025392 -98.19287109 89.99902344 C-98.20893402 88.71388855 -98.22499695 87.42875366 -98.24154663 86.10467529 C-98.25303434 84.6895819 -98.26364284 83.27448113 -98.2734375 81.859375 C-98.27876118 81.14941628 -98.28408485 80.43945755 -98.28956985 79.70798492 C-98.31632383 75.94807514 -98.33568884 72.18819877 -98.35009766 68.42822266 C-98.36672468 64.54631953 -98.41147791 60.66526891 -98.4624691 56.78368759 C-98.49615587 53.79820805 -98.5076767 50.81293011 -98.51332474 47.82727814 C-98.52003663 46.39672605 -98.53525748 44.96618721 -98.55921555 43.53582001 C-98.59088221 41.53029856 -98.58790105 39.52432129 -98.58349609 37.51855469 C-98.59158295 36.37795593 -98.5996698 35.23735718 -98.60800171 34.06219482 C-97.79131776 29.9489739 -96.27087101 28.56748317 -93 26 C-89.97627258 24.59716797 -89.97627258 24.59716797 -86.56762695 23.4921875 C-85.94232086 23.28491028 -85.31701477 23.07763306 -84.67276001 22.86407471 C-82.615747 22.18634738 -80.55246881 21.53051678 -78.48828125 20.875 C-77.03599616 20.40209344 -75.58411351 19.92794942 -74.13261414 19.45263672 C-71.08666452 18.45856115 -68.03777087 17.47436552 -64.98608398 16.49804688 C-61.12802468 15.26370953 -57.27545411 14.01327855 -53.42465401 12.75650024 C-44.30121312 9.77928957 -35.15980678 6.86330881 -26 4 C-24.97066345 3.67676758 -23.9413269 3.35353516 -22.88079834 3.02050781 C-20.37783217 2.24332604 -17.86980144 1.4894306 -15.35546875 0.75 C-14.69549393 0.5452002 -14.0355191 0.34040039 -13.35554504 0.12939453 C-8.52427115 -1.23372474 -4.85178744 -0.9546393 0 0 Z " fill="#0540B5" transform="translate(231,87)"/>
</svg>
