<?xml version="1.0" encoding="UTF-8"?>
<svg version="1.1" xmlns="http://www.w3.org/2000/svg" width="1262" height="352">
<path d="M0 0 C2.16678383 1.08204653 3.56447738 2.24023205 5.27388573 3.95813084 C5.91886009 4.59898121 6.56383446 5.23983158 7.2283535 5.90010166 C7.92462852 6.60716251 8.62090355 7.31422337 9.33827782 8.0427103 C10.08013329 8.78412769 10.82198875 9.52554508 11.58632469 10.28942966 C14.03913939 12.74433607 16.48115445 15.20970146 18.92323875 17.67527866 C20.62080623 19.3784407 22.31903681 21.08094204 24.01790428 22.78280735 C28.4895872 27.26594991 32.95218843 31.75802841 37.41298485 36.25199986 C41.96566025 40.83535176 46.52682979 45.41023305 51.08730125 49.98582554 C60.03575862 58.96646685 68.97494026 67.95628281 77.90761375 76.95262241 C78.30076397 76.55486323 78.69391418 76.15710405 79.09897804 75.74729156 C88.65797698 66.07795881 98.23088199 56.42258743 107.81902504 46.78215027 C112.45533336 42.11970569 117.08685928 37.45270651 121.70790672 32.77513218 C126.16442412 28.26444134 130.6329087 23.76593733 135.11009026 19.2757597 C136.8193579 17.55722598 138.52420562 15.83428487 140.22460747 14.10697842 C142.60003991 11.69545373 144.99045447 9.29982848 147.38515282 6.9074564 C148.44359146 5.82205318 148.44359146 5.82205318 149.5234127 4.71472263 C150.17680122 4.06820744 150.83018974 3.42169224 151.50337791 2.75558567 C152.06751522 2.1868394 152.63165253 1.61809313 153.2128849 1.03211212 C154.90761375 -0.04737759 154.90761375 -0.04737759 156.80558586 -0.0148077 C159.78257599 1.35531203 161.63082667 3.30781194 163.94429588 5.62854099 C164.43773987 6.1194217 164.93118385 6.61030241 165.43958068 7.11605829 C167.09271529 8.76424788 168.73489307 10.42293792 170.37734032 12.0817728 C171.55953693 13.26481554 172.74239434 14.44719827 173.92586327 15.62896824 C177.13888808 18.84113108 180.34256879 22.06247056 183.5446806 25.28550744 C186.891888 28.65144774 190.24757286 32.00891428 193.60237694 35.36728001 C199.95481315 41.72904663 206.29956229 48.0984231 212.64160132 54.47055286 C219.86176092 61.72422542 227.09042419 68.96939795 234.31982279 76.21386063 C249.19191735 91.11732679 264.05327297 106.03146232 278.90761375 120.95262241 C277.07933023 124.90018884 274.51651243 127.61273576 271.4481411 130.63914585 C270.89189552 131.19568348 270.33564995 131.75222111 269.76254845 132.32562351 C267.9275847 134.15919683 266.08564445 135.98558913 264.24355125 137.81199741 C262.96801986 139.08379766 261.69293008 140.35604095 260.41826439 141.62870884 C257.0656598 144.97368499 253.70709203 148.31261092 250.34724998 151.65031528 C246.91843919 155.05865072 243.49529802 158.47266987 240.07167625 161.88621616 C233.35586104 168.58059539 226.63373282 175.26859708 219.90761375 181.95262241 C216.84986196 180.58677524 214.74880184 179.04173876 212.38948631 176.67500401 C211.71085533 175.99912235 211.03222435 175.3232407 210.33302879 174.62687778 C209.59935081 173.88600925 208.86567284 173.14514072 208.10976219 172.38182163 C207.32889244 171.60124393 206.54802269 170.82066624 205.74349022 170.01643467 C203.16322102 167.43477197 200.59010853 164.84609683 198.01698875 162.25730991 C196.22952211 160.46611322 194.44161343 158.67535753 192.65328026 156.88502598 C188.42812745 152.6530167 184.20745916 148.41658483 179.98892999 144.17797673 C175.1851449 139.35182527 170.37566933 134.53136178 165.56570959 129.71136546 C155.67333709 119.79809634 145.78812488 109.87771275 135.90761375 99.95262241 C137.52537492 96.52779534 139.33104619 94.2957172 142.04042625 91.62449741 C142.84609032 90.82527866 143.65175438 90.02605991 144.4818325 89.20262241 C145.32359032 88.37762241 146.16534813 87.55262241 147.03261375 86.70262241 C148.30685204 85.44191929 148.30685204 85.44191929 149.6068325 84.15574741 C151.70266299 82.08346559 153.80302089 80.01599849 155.90761375 77.95262241 C159.96364089 79.56885505 162.67716904 82.45414917 165.68593407 85.50389194 C166.53537086 86.35289066 166.53537086 86.35289066 167.401968 87.21904087 C169.26800614 89.08646961 171.12686472 90.96087704 172.98573875 92.83543491 C174.27995929 94.13338653 175.57462281 95.43089657 176.86971092 96.72798252 C180.27387022 100.13977077 183.67198009 103.55752293 187.06886864 106.97654819 C190.53752782 110.46568161 194.01186958 113.94914628 197.48573875 117.43309116 C204.29860677 124.26739609 211.10509796 131.10801444 217.90761375 137.95262241 C219.01990347 137.00687932 220.13109999 136.05985041 221.24184227 135.11229038 C221.86075844 134.58505375 222.47967461 134.05781712 223.11734581 133.51460361 C225.46394355 131.46723324 227.66039424 129.29595299 229.84511375 127.07762241 C230.61726219 126.29645054 231.38941063 125.51527866 232.1849575 124.71043491 C232.75343407 124.13035679 233.32191063 123.55027866 233.90761375 122.95262241 C232.56733419 119.97169233 231.09229487 117.88916927 228.78185081 115.58635044 C227.81851326 114.61888889 227.81851326 114.61888889 226.83571434 113.63188267 C226.13224876 112.93560764 225.42878319 112.23933262 224.70400047 111.52195835 C223.96243706 110.78010288 223.22087364 110.03824741 222.45683861 109.27391148 C220.00503705 106.82350302 217.54622771 104.38025442 215.08730125 101.93699741 C213.3857855 100.23921185 211.68471083 98.54098412 209.98406029 96.84233189 C205.50696569 92.37287325 201.02389738 87.90945328 196.53957176 83.44725132 C191.96462906 78.89276774 187.39534328 74.33261674 182.8255825 69.77293491 C173.8584638 60.82726549 164.88521668 51.88776951 155.90761375 42.95262241 C150.93590405 47.1134947 146.29119549 51.45142064 141.75063133 56.07542515 C141.07328438 56.76065754 140.39593742 57.44588993 139.6980648 58.15188694 C138.23970228 59.62734054 136.78239464 61.10383742 135.3260498 62.58128262 C132.23024523 65.71933124 129.12496183 68.84792784 126.02022648 71.97713661 C120.24943334 77.79361897 114.4826373 83.61393221 108.73207664 89.45042515 C104.72121809 93.52048967 100.69841278 97.57839568 96.66729355 101.62839031 C95.13371585 103.17374121 93.60469278 104.72362556 92.08029175 106.27802944 C89.95697066 108.44211825 87.81880528 110.5903958 85.67641258 112.7355814 C85.0472393 113.3843021 84.41806602 114.0330228 83.76982689 114.70140171 C81.99899864 116.45578098 81.99899864 116.45578098 78.90761375 118.95262241 C75.56468323 118.68575968 73.8923695 117.30978465 71.57930565 114.98507786 C70.94274544 114.35264164 70.30618523 113.72020542 69.65033531 113.06860447 C68.61994888 112.0220393 68.61994888 112.0220393 67.56874657 110.9543314 C66.83664467 110.22266758 66.10454277 109.49100376 65.35025597 108.73716831 C62.92990591 106.31472668 60.52035756 103.88182864 58.11073875 101.44871616 C56.43559157 99.76797437 54.75978122 98.08789328 53.08333397 96.40844822 C48.67083416 91.98448914 44.26741705 87.55159509 39.86580467 83.11680698 C35.37345289 78.59377789 30.87260608 74.07921997 26.3724575 69.56395054 C17.54248897 60.70179872 8.72179692 51.83047286 -0.09238625 42.95262241 C-3.05393623 44.28634658 -5.13215419 45.74420166 -7.42069435 48.04042149 C-8.05725456 48.67423237 -8.69381477 49.30804325 -9.34966469 49.96106052 C-10.03658897 50.65517536 -10.72351326 51.3492902 -11.43125343 52.06443882 C-12.16335533 52.79624866 -12.89545723 53.52805851 -13.64974403 54.28204441 C-16.06768733 56.70138071 -18.47846994 59.12772354 -20.88926125 61.55418491 C-22.56462654 63.23328043 -24.24043403 64.91193485 -25.91666603 66.59016514 C-30.32694126 71.00807603 -34.73117737 75.43196022 -39.13419533 79.85710239 C-43.62835545 84.37172228 -48.12818363 88.88068474 -52.6275425 93.39012241 C-61.45472321 102.23875187 -70.27553623 111.09370017 -79.09238625 119.95262241 C-77.69642139 122.85881376 -76.36174423 124.92384007 -74.05332375 127.18699741 C-73.47324562 127.76063023 -72.8931675 128.33426304 -72.29551125 128.92527866 C-71.39058937 129.80506382 -71.39058937 129.80506382 -70.46738625 130.70262241 C-69.55086281 131.60561069 -69.55086281 131.60561069 -68.61582375 132.52684116 C-67.11250001 134.00667547 -65.60303769 135.48026918 -64.09238625 136.95262241 C-60.07667369 135.34402737 -57.38759011 132.51621877 -54.40586281 129.49314976 C-53.84932518 128.93690418 -53.29278755 128.38065861 -52.71938515 127.80755711 C-50.88581183 125.97259336 -49.05941953 124.13065311 -47.23301125 122.28855991 C-45.961211 121.01302852 -44.68896771 119.73793874 -43.41629982 118.46327305 C-40.07132367 115.11066846 -36.73239774 111.75210069 -33.39469337 108.39225864 C-29.98635794 104.96344785 -26.57233879 101.54030668 -23.1587925 98.11668491 C-16.46441327 91.40086969 -9.77641158 84.67874147 -3.09238625 77.95262241 C0.33244083 79.57038358 2.56451897 81.37605485 5.23573875 84.08543491 C6.43456688 85.29393101 6.43456688 85.29393101 7.65761375 86.52684116 C8.48261375 87.36859898 9.30761375 88.21035679 10.15761375 89.07762241 C10.9980825 89.9271146 11.83855125 90.77660679 12.70448875 91.65184116 C14.77677058 93.74767165 16.84423768 95.84802955 18.90761375 97.95262241 C17.54176658 101.0103742 15.9967301 103.11143433 13.62999535 105.47074986 C12.61617287 106.48869633 12.61617287 106.48869633 11.58186913 107.52720737 C10.8410006 108.26088535 10.10013206 108.99456333 9.33681297 109.75047398 C8.55623528 110.53134373 7.77565758 111.31221348 6.97142601 112.11674595 C4.38976331 114.69701515 1.80108817 117.27012764 -0.78769875 119.84324741 C-2.57889544 121.63071406 -4.36965113 123.41862274 -6.15998268 125.20695591 C-10.39199196 129.43210872 -14.62842382 133.65277701 -18.86703193 137.87130618 C-23.69318339 142.67509127 -28.51364687 147.48456683 -33.3336432 152.29452658 C-43.24691232 162.18689908 -53.16729591 172.07211128 -63.09238625 181.95262241 C-67.03995267 180.12433889 -69.75249959 177.56152109 -72.77890968 174.49314976 C-73.33544731 173.93690418 -73.89198494 173.38065861 -74.46538734 172.80755711 C-76.29896067 170.97259336 -78.12535296 169.13065311 -79.95176125 167.28855991 C-81.22356149 166.01302852 -82.49580478 164.73793874 -83.76847267 163.46327305 C-87.11344882 160.11066846 -90.45237476 156.75210069 -93.79007912 153.39225864 C-97.19841455 149.96344785 -100.6124337 146.54030668 -104.02598 143.11668491 C-110.72035922 136.40086969 -117.40836091 129.67874147 -124.09238625 122.95262241 C-118.71214141 116.42890302 -112.78799768 110.47868892 -106.82627296 104.49363804 C-105.68886203 103.34831256 -104.5516293 102.20281008 -103.41456032 101.05714512 C-99.70411844 97.32067908 -95.98839468 93.58948979 -92.27207375 89.85887241 C-90.98996396 88.57139828 -89.70786077 87.28391758 -88.42576408 85.9964304 C-83.09712692 80.64620961 -77.76706963 75.29741036 -72.43328094 69.95232487 C-64.79592484 62.29868142 -57.16722351 54.63663518 -49.55015552 46.9627986 C-44.18633633 41.56036811 -38.81304987 36.16747264 -33.43254101 30.78166437 C-30.22033018 27.56579327 -27.01247273 24.34583881 -23.81464195 21.11566257 C-20.81310298 18.08419178 -17.80007297 15.06464772 -14.77762413 12.05402851 C-13.66869009 10.94531633 -12.56405582 9.83228493 -11.46400642 8.71475697 C-9.96618217 7.19442985 -8.45390092 5.69016615 -6.93683815 4.18907261 C-6.09289434 3.34181866 -5.24895054 2.4945647 -4.37943268 1.62163639 C-2.09238625 -0.04737759 -2.09238625 -0.04737759 0 0 Z " fill="#F2C400" transform="translate(135.09238624572754,70.04737758636475)"/>
<path d="M0 0 C85.68802632 0 85.68802632 0 97.26953125 10.98046875 C103.24887322 17.95861728 103.77781984 26.30994867 103.375 35.15625 C102.54379136 43.6761386 99.56415862 49.44378075 93.28125 55.24609375 C86.97731121 60.09278642 79.01552746 64 71 64 C71 64.99 71 65.98 71 67 C71.94359375 67.03738281 72.8871875 67.07476562 73.859375 67.11328125 C87.50487657 67.81199669 100.97840078 69.35753777 110.875 79.75 C118.14935256 88.8977937 118.08248796 99.7656009 117 111 C115.45032975 119.21617624 111.4741437 125.71112261 105 131 C95.29620962 136.91501442 85.84993462 140.33639178 74.47265625 140.22705078 C73.23714272 140.22741239 73.23714272 140.22741239 71.97666931 140.2277813 C69.33849886 140.22630117 66.70061919 140.21112878 64.0625 140.1953125 C62.42252742 140.19236802 60.78255296 140.19033008 59.14257812 140.18920898 C53.09502322 140.17876854 47.04750869 140.15084601 41 140.125 C27.47 140.08375 13.94 140.0425 0 140 C0 93.8 0 47.6 0 0 Z M27 22 C27 33.88 27 45.76 27 58 C35.415 58.12375 35.415 58.12375 44 58.25 C46.63162109 58.30462402 46.63162109 58.30462402 49.31640625 58.36035156 C50.73175845 58.3720513 52.14712428 58.38224007 53.5625 58.390625 C54.27728516 58.41108887 54.99207031 58.43155273 55.72851562 58.45263672 C61.23163629 58.45638544 65.38972573 57.02392718 70 54 C74.64250926 49.11314815 76.28917012 45.28928243 76.3125 38.5625 C76.32925781 37.45003906 76.34601563 36.33757812 76.36328125 35.19140625 C75.88892935 31.02425029 74.192332 28.60964819 71.75 25.3125 C66.76353036 21.57264777 60.39332734 21.72255636 54.44140625 21.8046875 C53.7407605 21.80670166 53.04011475 21.80871582 52.3182373 21.81079102 C49.73292371 21.82115412 47.14770438 21.84907569 44.5625 21.875 C38.766875 21.91625 32.97125 21.9575 27 22 Z M27 78 C27 91.2 27 104.4 27 118 C32.92324354 118.09235027 38.84394134 118.1718298 44.76733398 118.21972656 C46.77783724 118.23971393 48.78828333 118.26691326 50.79858398 118.30175781 C67.69796957 119.20175643 67.69796957 119.20175643 82.67919922 112.5871582 C87.51533262 107.25682762 88.4674947 101.72462156 88.30859375 94.7890625 C87.83919983 90.54669213 86.6600653 87.34883221 84 84 C73.49522858 75.85344257 58.36727446 77.75691856 45.8125 77.875 C39.604375 77.91625 33.39625 77.9575 27 78 Z " fill="#F6F6F6" transform="translate(462,96)"/>
<path d="M0 0 C8.58 0 17.16 0 26 0 C26 47.19 26 94.38 26 143 C19.07 143 12.14 143 5 143 C3.86460422 134.67376426 2.74849976 126.3713789 2 118 C0.515 117.505 0.515 117.505 -1 117 C-1.0928125 118.175625 -1.0928125 118.175625 -1.1875 119.375 C-3.05767632 127.71886356 -7.22566946 134.7404266 -14 140 C-24.75190394 146.76500465 -37.41887246 147.60326799 -49.6796875 145.3125 C-61.24881835 142.04592188 -70.12029062 135.96930798 -76.4375 125.65234375 C-85.04893811 109.48026801 -85.85292732 90.66756828 -82 73 C-77.95855095 60.35712732 -71.01982535 48.98626833 -59.15234375 42.42578125 C-48.114995 37.24134691 -34.6935264 35.65136415 -22.9375 39.625 C-14.31586696 43.37410406 -8.30168848 48.57083473 -4 57 C-2.78382052 60.29056864 -1.81196001 63.58834345 -1 67 C-0.01 67 0.98 67 2 67 C1.93941406 66.32050293 1.87882812 65.64100586 1.81640625 64.94091797 C-0.05051023 43.25955529 -0.20967186 21.74763136 0 0 Z M-48.3125 65.1875 C-57.0054973 76.39180763 -56.95464657 89.44295209 -56 103 C-54.57737112 110.78160859 -50.92249229 116.77124868 -45 122 C-38.09421077 126.19763659 -30.52401236 127.34687616 -22.62890625 125.421875 C-15.58024772 122.73434488 -10.36268216 117.50462931 -6.87109375 110.84765625 C-2.32139815 99.39649003 -2.75381001 86.4061164 -6.73828125 74.9140625 C-9.86957088 67.68204374 -14.32797449 63.07734892 -21 59 C-30.68535003 55.87181241 -41.29758304 57.64646426 -48.3125 65.1875 Z " fill="#F6F6F6" transform="translate(1110,93)"/>
<path d="M0 0 C10.16428447 7.2291435 15.76580804 16.63976689 19.06640625 28.55859375 C20.19140625 35.55859375 20.19140625 35.55859375 20.19140625 55.55859375 C-3.56859375 55.55859375 -27.32859375 55.55859375 -51.80859375 55.55859375 C-48.42926861 68.78974943 -48.42926861 68.78974943 -39.55078125 77.9296875 C-32.04821334 81.32818613 -24.87284371 81.64022371 -16.99609375 79.37109375 C-9.7999819 76.63935357 -6.55223098 70.90488098 -2.80859375 64.55859375 C0.12934445 65.20248438 3.06675725 65.84862154 6.00390625 66.49609375 C6.83728516 66.67849609 7.67066406 66.86089844 8.52929688 67.04882812 C9.73295898 67.31469727 9.73295898 67.31469727 10.9609375 67.5859375 C12.06852417 67.82944946 12.06852417 67.82944946 13.19848633 68.07788086 C15.19140625 68.55859375 15.19140625 68.55859375 18.19140625 69.55859375 C17.81306086 78.2605377 13.20391364 84.97162532 7.00390625 90.87109375 C-3.21469838 99.37228584 -15.1357239 101.9532269 -28.12109375 101.87109375 C-29.04317627 101.8661792 -29.96525879 101.86126465 -30.9152832 101.85620117 C-44.16627967 101.62896132 -57.18568088 98.18150662 -66.80859375 88.55859375 C-77.44837143 75.46348276 -81.12197254 60.30922475 -79.80859375 43.55859375 C-77.5769867 27.05773287 -72.88356546 13.55774521 -59.80859375 2.55859375 C-43.01126247 -9.32164056 -17.7074807 -10.67517173 0 0 Z M-45.08203125 20.54296875 C-50.39107633 26.74085848 -50.9046447 32.42305227 -51.80859375 40.55859375 C-36.29859375 40.55859375 -20.78859375 40.55859375 -4.80859375 40.55859375 C-4.80859375 32.56463248 -6.19935225 25.52681654 -11.18359375 19.05859375 C-21.44753476 9.28341183 -35.3194032 11.28597482 -45.08203125 20.54296875 Z " fill="#F4F4F4" transform="translate(1230.80859375,137.44140625)"/>
<path d="M0 0 C10.16428447 7.2291435 15.76580804 16.63976689 19.06640625 28.55859375 C20.19140625 35.55859375 20.19140625 35.55859375 20.19140625 55.55859375 C-3.56859375 55.55859375 -27.32859375 55.55859375 -51.80859375 55.55859375 C-48.42926861 68.78974943 -48.42926861 68.78974943 -39.55078125 77.9296875 C-32.04821334 81.32818613 -24.87284371 81.64022371 -16.99609375 79.37109375 C-9.7999819 76.63935357 -6.55223098 70.90488098 -2.80859375 64.55859375 C0.12934445 65.20248438 3.06675725 65.84862154 6.00390625 66.49609375 C6.83728516 66.67849609 7.67066406 66.86089844 8.52929688 67.04882812 C9.73295898 67.31469727 9.73295898 67.31469727 10.9609375 67.5859375 C12.06852417 67.82944946 12.06852417 67.82944946 13.19848633 68.07788086 C15.19140625 68.55859375 15.19140625 68.55859375 18.19140625 69.55859375 C17.81306086 78.2605377 13.20391364 84.97162532 7.00390625 90.87109375 C-3.21469838 99.37228584 -15.1357239 101.9532269 -28.12109375 101.87109375 C-29.04317627 101.8661792 -29.96525879 101.86126465 -30.9152832 101.85620117 C-44.16627967 101.62896132 -57.18568088 98.18150662 -66.80859375 88.55859375 C-77.44837143 75.46348276 -81.12197254 60.30922475 -79.80859375 43.55859375 C-77.5769867 27.05773287 -72.88356546 13.55774521 -59.80859375 2.55859375 C-43.01126247 -9.32164056 -17.7074807 -10.67517173 0 0 Z M-45.08203125 20.54296875 C-50.39107633 26.74085848 -50.9046447 32.42305227 -51.80859375 40.55859375 C-36.29859375 40.55859375 -20.78859375 40.55859375 -4.80859375 40.55859375 C-4.80859375 32.56463248 -6.19935225 25.52681654 -11.18359375 19.05859375 C-21.44753476 9.28341183 -35.3194032 11.28597482 -45.08203125 20.54296875 Z " fill="#F4F4F4" transform="translate(773.80859375,137.44140625)"/>
<path d="M0 0 C10.16428447 7.2291435 15.76580804 16.63976689 19.06640625 28.55859375 C20.19140625 35.55859375 20.19140625 35.55859375 20.19140625 55.55859375 C-3.56859375 55.55859375 -27.32859375 55.55859375 -51.80859375 55.55859375 C-48.42926861 68.78974943 -48.42926861 68.78974943 -39.55078125 77.9296875 C-32.04821334 81.32818613 -24.87284371 81.64022371 -16.99609375 79.37109375 C-9.7999819 76.63935357 -6.55223098 70.90488098 -2.80859375 64.55859375 C0.12934445 65.20248438 3.06675725 65.84862154 6.00390625 66.49609375 C6.83728516 66.67849609 7.67066406 66.86089844 8.52929688 67.04882812 C9.73295898 67.31469727 9.73295898 67.31469727 10.9609375 67.5859375 C12.06852417 67.82944946 12.06852417 67.82944946 13.19848633 68.07788086 C15.19140625 68.55859375 15.19140625 68.55859375 18.19140625 69.55859375 C17.81306086 78.2605377 13.20391364 84.97162532 7.00390625 90.87109375 C-3.21469838 99.37228584 -15.1357239 101.9532269 -28.12109375 101.87109375 C-29.04317627 101.8661792 -29.96525879 101.86126465 -30.9152832 101.85620117 C-44.16627967 101.62896132 -57.18568088 98.18150662 -66.80859375 88.55859375 C-77.44837143 75.46348276 -81.12197254 60.30922475 -79.80859375 43.55859375 C-77.5769867 27.05773287 -72.88356546 13.55774521 -59.80859375 2.55859375 C-43.01126247 -9.32164056 -17.7074807 -10.67517173 0 0 Z M-45.08203125 20.54296875 C-50.39107633 26.74085848 -50.9046447 32.42305227 -51.80859375 40.55859375 C-36.29859375 40.55859375 -20.78859375 40.55859375 -4.80859375 40.55859375 C-4.80859375 32.56463248 -6.19935225 25.52681654 -11.18359375 19.05859375 C-21.44753476 9.28341183 -35.3194032 11.28597482 -45.08203125 20.54296875 Z " fill="#F4F4F4" transform="translate(665.80859375,137.44140625)"/>
<path d="M0 0 C0.92353271 0.00563965 1.84706543 0.0112793 2.79858398 0.01708984 C16.84462264 0.2663037 30.4681761 4.41161809 40.87890625 14.28125 C49.01664617 23.42082832 54.13666219 35.03340723 54.6875 47.3125 C54.7390625 48.15683594 54.790625 49.00117188 54.84375 49.87109375 C55.35890706 65.6907085 52.15609557 80.76003629 41.9375 93.1875 C32.69185766 102.88928409 19.46426323 108.07257023 6.18359375 108.515625 C-11.7360573 108.7931339 -26.64555032 106.46611348 -40.0546875 93.6875 C-50.63109051 82.56214874 -53.65146669 68.29282449 -53.46484375 53.30078125 C-52.63221383 36.96842505 -47.7294759 22.70475135 -35.77734375 11.234375 C-25.14273289 2.94241217 -13.24440548 -0.08497007 0 0 Z M-19.3125 28.3125 C-26.713611 39.35511508 -27.49112377 52.50509928 -25.1875 65.25 C-23.21721084 73.84929944 -19.66771383 80.56603726 -12.09375 85.3828125 C-5.21372004 88.97370533 1.91943774 89.2908362 9.25 87.1875 C16.0073438 84.6636728 20.11699761 80.85175958 23.5 74.5 C29.13433561 62.04515286 29.46946512 48.16627844 24.6875 35.3125 C21.3146753 28.57707127 16.86941715 23.22427526 9.67578125 20.5703125 C-0.84375558 17.6448794 -12.13804329 19.65556626 -19.3125 28.3125 Z " fill="#F5F5F5" transform="translate(961.3125,130.6875)"/>
<path d="M0 0 C5.55683896 4.95955876 9.17027664 10.749295 11 18 C11.05907587 19.99912732 11.07241625 22.00131146 11 24 C8.81426438 24.65177969 6.6263177 25.29614674 4.4375 25.9375 C3.21933594 26.29714844 2.00117187 26.65679687 0.74609375 27.02734375 C-2.87201619 27.96676959 -6.29853486 28.54743991 -10 29 C-10.20753906 28.34773438 -10.41507813 27.69546875 -10.62890625 27.0234375 C-12.84521522 20.73616771 -15.15526697 16.43737373 -21 13 C-27.7255634 9.93644887 -35.70288076 10.39937289 -42.52734375 12.94140625 C-49.32505142 16.36853674 -52.954198 20.947995 -55.75 27.9375 C-59.31714075 39.99197562 -59.0878943 54.01223239 -53.859375 65.5078125 C-50.07210632 72.00369738 -45.40826709 75.31344124 -38.2578125 77.4609375 C-31.69916312 79.02684341 -26.01876703 77.72880114 -20 75 C-14.82582488 71.51738213 -11.99327885 67.33757246 -9 62 C-1.76410027 62.60299164 4.99370876 64.1150587 12 66 C11.65162464 75.40613467 6.92365887 83.02525951 0.109375 89.40234375 C-13.34184687 99.59039883 -29.99850479 100.79576469 -46.25 98.71142578 C-58.38799494 96.57060991 -68.40761237 90.92798471 -76.28125 81.45703125 C-86.43374242 66.94358186 -87.81165322 48.01525497 -84.875 31 C-82.31623951 17.70704241 -75.78205652 6.63199494 -64.6875 -1.3125 C-46.36214092 -12.72621846 -17.41761089 -13.31224679 0 0 Z " fill="#F4F4F4" transform="translate(888,140)"/>
<path d="M0 0 C3.13738154 1.39080525 5.25475281 3.01022204 7.66699219 5.43994141 C8.71762848 6.49080429 8.71762848 6.49080429 9.78948975 7.56289673 C10.53442688 8.31815643 11.27936401 9.07341614 12.046875 9.8515625 C12.81807678 10.62559418 13.58927856 11.39962585 14.3838501 12.19711304 C16.84396856 14.66841923 19.29703848 17.14659183 21.75 19.625 C23.41750894 21.30254052 25.08547232 22.97962945 26.75390625 24.65625 C30.8412237 28.76560919 34.92277696 32.88062647 39 37 C44.06716928 32.77376693 48.73750406 28.33628658 53.32421875 23.59765625 C54.69537015 22.1992877 56.06713247 20.80151796 57.43945312 19.40429688 C59.57843972 17.2218239 61.71328683 15.03584668 63.83813477 12.83959961 C65.90555524 10.70590807 67.98826187 8.58820811 70.07421875 6.47265625 C71.0274427 5.47601707 71.0274427 5.47601707 71.99992371 4.45924377 C72.59767105 3.85789108 73.1954184 3.25653839 73.8112793 2.63696289 C74.33199509 2.10212784 74.85271088 1.56729279 75.38920593 1.01625061 C77 0 77 0 79.06665039 0.22879028 C83.60388097 2.03868348 86.92293401 6.41239923 90.3125 9.8125 C91.16134766 10.63298828 92.01019531 11.45347656 92.88476562 12.29882812 C93.68205078 13.09353516 94.47933594 13.88824219 95.30078125 14.70703125 C96.03466064 15.4338208 96.76854004 16.16061035 97.5246582 16.90942383 C99 19 99 19 98.92236328 20.77426147 C97.56382182 24.05253386 95.19398873 26.23980687 92.7175293 28.70239258 C92.16785492 29.2605365 91.61818054 29.81868042 91.05184937 30.39373779 C89.23374793 32.23522795 87.40466362 34.06531546 85.57421875 35.89453125 C84.30697965 37.16886899 83.04004132 38.44350588 81.77339172 39.71842957 C79.11785644 42.38741271 76.45645312 45.05037949 73.79125977 47.7097168 C70.37100775 51.12406199 66.96938433 54.55632807 63.57234478 57.99374866 C60.96190665 60.62998584 58.34013651 63.25471861 55.71494484 65.87625694 C54.45545303 67.13744623 53.19995991 68.40264164 51.94852257 69.6718235 C50.20086209 71.44152653 48.43816985 73.19473872 46.6706543 74.94458008 C46.15361435 75.47488327 45.6365744 76.00518646 45.10386658 76.55155945 C41.62137198 79.95334742 41.62137198 79.95334742 39.00099182 80.15008545 C36.00454131 78.42785245 33.71234476 76.10281147 31.31347656 73.65405273 C30.75693893 73.09795319 30.20040131 72.54185364 29.6269989 71.96890259 C27.79100642 70.13082172 25.96586561 68.28234668 24.140625 66.43359375 C22.86904314 65.15641614 21.59679689 63.87989969 20.32391357 62.60401917 C16.97670588 59.24536118 13.63860517 55.87779136 10.30230713 52.50830078 C6.89578373 49.07108069 3.48074415 45.64234523 0.06640625 42.21289062 C-6.63076904 35.48354791 -13.31835621 28.74476188 -20 22 C-18.38223883 18.57517293 -16.57656756 16.34309478 -13.8671875 13.671875 C-12.65869141 12.47304688 -12.65869141 12.47304688 -11.42578125 11.25 C-10.58402344 10.425 -9.74226562 9.6 -8.875 8.75 C-8.02550781 7.90953125 -7.17601562 7.0690625 -6.30078125 6.203125 C-4.20495077 4.13084317 -2.10459287 2.06337607 0 0 Z " fill="#EEC100" transform="translate(173,30)"/>
<path d="M0 0 C2.48857133 0.9576809 3.6948642 2.10341496 5.52735901 4.034729 C6.18194092 4.71535904 6.83652283 5.39598907 7.51094055 6.09724426 C8.55789093 7.20506508 8.55789093 7.20506508 9.62599182 8.33526611 C11.12525105 9.88220836 12.62527514 11.42840961 14.12599182 12.97393799 C16.4825882 15.41726065 18.8324529 17.8661259 21.16896057 20.32867432 C23.42837268 22.70310498 25.7123052 25.05158751 28.00099182 27.39776611 C28.69086182 28.13833755 29.38073181 28.878909 30.09150696 29.641922 C33.12567356 32.72287201 35.62477481 35.25703988 40.05665588 35.74127197 C45.58722401 35.15858561 48.882599 30.98504499 52.51661682 27.14385986 C53.28215881 26.36699829 54.04770081 25.59013672 54.83644104 24.78973389 C57.27012551 22.31137296 59.674485 19.80663694 62.07911682 17.30010986 C63.726996 15.61209377 65.3767164 13.92587303 67.02833557 12.24151611 C71.06683566 8.11495227 75.08162793 3.96639352 79.07911682 -0.19989014 C82.60256326 1.45872866 84.8781356 3.36668295 87.62599182 6.15167236 C88.47032776 7.00245361 89.3146637 7.85323486 90.18458557 8.72979736 C91.49362854 10.06397705 91.49362854 10.06397705 92.82911682 11.42510986 C93.71728088 12.32229736 94.60544495 13.21948486 95.52052307 14.14385986 C97.71128652 16.3581799 99.89724445 18.57703421 102.07911682 20.80010986 C97.6449501 26.11079791 92.96394996 31.04847603 88.05567932 35.92120361 C87.30950348 36.66596451 86.56332764 37.4107254 85.79454041 38.17805481 C83.43342293 40.53361813 81.0688352 42.88566202 78.70411682 45.23760986 C77.09320826 46.84349749 75.48252886 48.44961503 73.87208557 50.05596924 C69.94374169 53.97334499 66.01255008 57.88784474 62.07911682 61.80010986 C59.06945326 60.36520728 57.13578257 59.03667218 54.90724182 56.54229736 C54.32458557 55.91710205 53.74192932 55.29190674 53.14161682 54.64776611 C51.93649021 53.33615202 50.7436099 52.01317615 49.56349182 50.67901611 C46.73155936 47.67940344 44.40680841 45.33876486 40.18849182 44.83917236 C34.35558685 45.38291774 30.81273711 50.2300108 27.07911682 54.30010986 C25.91702698 55.51634033 25.91702698 55.51634033 24.73146057 56.75714111 C22.82799573 58.75460421 20.94569367 60.7682367 19.07911682 62.80010986 C11.30773314 56.28377166 4.16478605 49.18078224 -3.03025818 42.04083252 C-4.63304383 40.45474256 -6.24119371 38.87405622 -7.85447693 37.29864502 C-10.19079127 35.01676264 -12.51052992 32.7191671 -14.82713318 30.41729736 C-15.55404358 29.71305634 -16.28095398 29.00881531 -17.02989197 28.28323364 C-17.68807922 27.62219635 -18.34626648 26.96115906 -19.0243988 26.28009033 C-19.60951233 25.70306366 -20.19462585 25.12603699 -20.79747009 24.53152466 C-21.92088318 22.80010986 -21.92088318 22.80010986 -21.71405029 20.72099304 C-19.77181406 16.01730721 -15.15230798 12.52114954 -11.60838318 8.98760986 C-10.74019958 8.09106689 -9.87201599 7.19452393 -8.9775238 6.27081299 C-8.13769958 5.42841064 -7.29787537 4.5860083 -6.43260193 3.71807861 C-5.66391785 2.94230469 -4.89523376 2.16653076 -4.10325623 1.36724854 C-1.92088318 -0.19989014 -1.92088318 -0.19989014 0 0 Z " fill="#F1C300" transform="translate(172.92088317871094,187.19989013671875)"/>
<path d="M0 0 C4.96655426 4.13767422 9.51164401 8.46877321 13.96484375 13.1484375 C15.27171275 14.49713499 16.57968861 15.84476067 17.88867188 17.19140625 C19.92420054 19.28876691 21.95279448 21.39113302 23.96362305 23.51220703 C25.92473264 25.57640762 27.91054407 27.61389183 29.90234375 29.6484375 C30.49530746 30.28582855 31.08827118 30.9232196 31.69920349 31.57992554 C34.53585415 34.43540096 36.82095406 36.4295264 40.91625977 36.87548828 C46.51422102 36.37276335 49.7688506 32.22154098 53.4375 28.34375 C54.20304199 27.56688843 54.96858398 26.79002686 55.75732422 25.98962402 C58.19100869 23.5112631 60.59536818 21.00652707 63 18.5 C64.64787918 16.81198391 66.29759958 15.12576317 67.94921875 13.44140625 C71.98771884 9.31484241 76.00251111 5.16628366 80 1 C83.52344644 2.6586188 85.79901878 4.56657308 88.546875 7.3515625 C89.39121094 8.20234375 90.23554688 9.053125 91.10546875 9.9296875 C92.41451172 11.26386719 92.41451172 11.26386719 93.75 12.625 C94.63816406 13.5221875 95.52632813 14.419375 96.44140625 15.34375 C98.63216969 17.55807004 100.81812763 19.77692435 103 22 C98.56583328 27.31068805 93.88483314 32.24836617 88.9765625 37.12109375 C88.23038666 37.86585464 87.48421082 38.61061554 86.71542358 39.37794495 C84.35430611 41.73350827 81.98971838 44.08555216 79.625 46.4375 C78.01409144 48.04338763 76.40341204 49.64950516 74.79296875 51.25585938 C70.86462487 55.17323513 66.93343326 59.08773487 63 63 C59.99033644 61.56509742 58.05666574 60.23656231 55.828125 57.7421875 C55.24546875 57.11699219 54.6628125 56.49179687 54.0625 55.84765625 C52.85737339 54.53604216 51.66449308 53.21306629 50.484375 51.87890625 C47.63338737 48.85911014 45.32964344 46.54107611 41.078125 46.0703125 C35.43310785 46.59654291 32.11293145 51.03915663 28.5 55 C27.40945312 56.1446875 27.40945312 56.1446875 26.296875 57.3125 C24.51179169 59.19153506 22.74804214 61.08656814 21 63 C17.72803548 61.56741228 15.56796044 59.81174684 13.05761719 57.28466797 C12.29713074 56.52403046 11.53664429 55.76339294 10.75311279 54.97970581 C9.94255432 54.15882477 9.13199585 53.33794373 8.296875 52.4921875 C7.45908508 51.65156769 6.62129517 50.81094788 5.75811768 49.94485474 C3.08401569 47.25955999 0.41695276 44.56739345 -2.25 41.875 C-4.06204062 40.05292845 -5.87453518 38.23130823 -7.6875 36.41015625 C-12.13028036 31.94532748 -16.56730165 27.47483717 -21 23 C-19.3413812 19.47655356 -17.43342692 17.20098122 -14.6484375 14.453125 C-13.79765625 13.60878906 -12.946875 12.76445312 -12.0703125 11.89453125 C-11.18085938 11.02183594 -10.29140625 10.14914062 -9.375 9.25 C-8.4778125 8.36183594 -7.580625 7.47367187 -6.65625 6.55859375 C-4.44192996 4.36783031 -2.22307565 2.18187237 0 0 Z " fill="#F2C400" transform="translate(172,267)"/>
<path d="M0 0 C6.18924571 5.15770476 8.70216252 11.8899027 9.8125 19.6875 C10.49821211 29.15616297 9.31168758 38.61204199 3 46 C-2.39290291 51.25462335 -8.00248342 52.2896984 -15.375 52.3125 C-22.83190444 52.19552895 -27.84583924 51.58067699 -33.75 46.75 C-41.40072881 37.39910923 -42.06985254 27.69890703 -41 16 C-39.6496345 10.33266294 -37.27709423 5.03947789 -33 1 C-22.61373497 -5.30901223 -10.72031778 -6.37576794 0 0 Z M-31 6 C-36.33982763 14.29123396 -37.48527213 23.76076027 -35.50390625 33.41796875 C-33.74159108 38.56552209 -31.00827691 43.28928459 -26.1796875 46.03515625 C-20.03218422 48.62675077 -14.24306311 48.88666 -7.875 46.9375 C-2.6290045 44.75855305 0.58082666 40.75086339 3.140625 35.7890625 C5.41578281 28.40514124 5.30012439 17.96530682 2.375 10.75 C-0.3260563 5.91800655 -3.26872706 2.86999199 -8.55078125 1.1875 C-17.11124047 -0.70693081 -24.123528 0.06122873 -31 6 Z " fill="#CECECE" transform="translate(1036,269)"/>
<path d="M0 0 C6.18924571 5.15770476 8.70216252 11.8899027 9.8125 19.6875 C10.49821211 29.15616297 9.31168758 38.61204199 3 46 C-2.39290291 51.25462335 -8.00248342 52.2896984 -15.375 52.3125 C-22.83190444 52.19552895 -27.84583924 51.58067699 -33.75 46.75 C-41.40072881 37.39910923 -42.06985254 27.69890703 -41 16 C-39.6496345 10.33266294 -37.27709423 5.03947789 -33 1 C-22.61373497 -5.30901223 -10.72031778 -6.37576794 0 0 Z M-31 6 C-36.33982763 14.29123396 -37.48527213 23.76076027 -35.50390625 33.41796875 C-33.74159108 38.56552209 -31.00827691 43.28928459 -26.1796875 46.03515625 C-20.03218422 48.62675077 -14.24306311 48.88666 -7.875 46.9375 C-2.6290045 44.75855305 0.58082666 40.75086339 3.140625 35.7890625 C5.41578281 28.40514124 5.30012439 17.96530682 2.375 10.75 C-0.3260563 5.91800655 -3.26872706 2.86999199 -8.55078125 1.1875 C-17.11124047 -0.70693081 -24.123528 0.06122873 -31 6 Z " fill="#CECECE" transform="translate(596,269)"/>
<path d="M0 0 C8 0 8 0 10.27832031 2.25292969 C10.87225586 3.29868164 11.46619141 4.34443359 12.078125 5.421875 C12.4156781 5.99593079 12.7532312 6.56998657 13.10101318 7.16143799 C14.17932313 9.00941007 15.21487477 10.87756269 16.25 12.75 C16.92821655 13.93128393 17.60918987 15.11098956 18.29296875 16.2890625 C20.54243175 20.18478054 22.77055 24.09279441 25 28 C28.96 34.6 32.92 41.2 37 48 C37 32.16 37 16.32 37 0 C38.32 0 39.64 0 41 0 C41 17.82 41 35.64 41 54 C38.69 54 36.38 54 34 54 C31.91357422 51.74072266 31.91357422 51.74072266 30.1796875 48.5390625 C29.50511401 47.33873723 28.83029772 46.13854838 28.15527344 44.93847656 C27.80702515 44.29736938 27.45877686 43.65626221 27.09997559 42.99572754 C25.20334509 39.5545987 23.15509426 36.20416814 21.1328125 32.8359375 C20.30092637 31.43427976 19.47020335 30.03193109 18.640625 28.62890625 C18.22748047 27.93039551 17.81433594 27.23188477 17.38867188 26.51220703 C16.97166016 25.80692871 16.55464844 25.10165039 16.125 24.375 C14.84462663 22.21032957 13.56391447 20.04586284 12.28219604 17.88198853 C11.49340385 16.55025241 10.70537916 15.2180613 9.91824341 13.88534546 C8.33478368 11.21151086 6.7243219 8.58648285 5 6 C5 21.84 5 37.68 5 54 C3.35 54 1.7 54 0 54 C0 36.18 0 18.36 0 0 Z " fill="#D4D4D4" transform="translate(1099,266)"/>
<path d="M0 0 C3.04787775 2.96972704 4.75088083 5.94036269 6 10 C6 11.32 6 12.64 6 14 C4.35 14 2.7 14 1 14 C0.4121875 12.1128125 0.4121875 12.1128125 -0.1875 10.1875 C-1.26020725 7.38956313 -1.87145657 6.11720136 -4.125 4.0625 C-10.88761847 1.56327143 -16.33318286 1.6689686 -23.15234375 3.91796875 C-25.50975141 5.29852249 -26.10081415 6.44441916 -27 9 C-27.08333333 12.58333333 -27.08333333 12.58333333 -26 16 C-21.64097582 19.58408655 -16.39836067 20.07680209 -11 21 C1.38878765 23.11866224 1.38878765 23.11866224 5.8125 28 C7.65251668 32.64846318 7.65234691 37.07115671 7 42 C4.81473658 46.45146251 2.0605479 49.18885145 -2 52 C-8.47944461 54.15981487 -17.15084766 54.27475925 -23.5 51.5625 C-27.91136301 48.9004706 -30.92570579 44.6593048 -33 40 C-33.15625 37.21484375 -33.15625 37.21484375 -33 35 C-31.02 34.505 -31.02 34.505 -29 34 C-28.67128906 34.77923828 -28.67128906 34.77923828 -28.3359375 35.57421875 C-26.03980384 40.62384604 -23.86485159 44.02703514 -19 47 C-14.21682906 48.2728769 -9.73694935 48.60503248 -5.0625 46.8125 C-1.23846695 44.60400479 -1.23846695 44.60400479 1 41 C1.66493923 36.9688059 1.7196218 34.05175494 -0.625 30.625 C-6.08235386 26.89102104 -12.66901128 26.25999459 -19.078125 25.3203125 C-24.47456234 24.41404058 -28.92050856 22.64662547 -32.375 18.25 C-33.81869423 13.05270076 -33.44527504 9.21438648 -31.625 4.25 C-25.17625202 -5.67289741 -9.34122903 -4.79478218 0 0 Z " fill="#CACACA" transform="translate(1229,268)"/>
<path d="M0 0 C3.04787775 2.96972704 4.75088083 5.94036269 6 10 C6 11.32 6 12.64 6 14 C4.35 14 2.7 14 1 14 C0.4121875 12.1128125 0.4121875 12.1128125 -0.1875 10.1875 C-1.26020725 7.38956313 -1.87145657 6.11720136 -4.125 4.0625 C-10.88761847 1.56327143 -16.33318286 1.6689686 -23.15234375 3.91796875 C-25.50975141 5.29852249 -26.10081415 6.44441916 -27 9 C-27.08333333 12.58333333 -27.08333333 12.58333333 -26 16 C-21.64097582 19.58408655 -16.39836067 20.07680209 -11 21 C1.38878765 23.11866224 1.38878765 23.11866224 5.8125 28 C7.65251668 32.64846318 7.65234691 37.07115671 7 42 C4.81473658 46.45146251 2.0605479 49.18885145 -2 52 C-8.47944461 54.15981487 -17.15084766 54.27475925 -23.5 51.5625 C-27.91136301 48.9004706 -30.92570579 44.6593048 -33 40 C-33.15625 37.21484375 -33.15625 37.21484375 -33 35 C-31.02 34.505 -31.02 34.505 -29 34 C-28.67128906 34.77923828 -28.67128906 34.77923828 -28.3359375 35.57421875 C-26.03980384 40.62384604 -23.86485159 44.02703514 -19 47 C-14.21682906 48.2728769 -9.73694935 48.60503248 -5.0625 46.8125 C-1.23846695 44.60400479 -1.23846695 44.60400479 1 41 C1.66493923 36.9688059 1.7196218 34.05175494 -0.625 30.625 C-6.08235386 26.89102104 -12.66901128 26.25999459 -19.078125 25.3203125 C-24.47456234 24.41404058 -28.92050856 22.64662547 -32.375 18.25 C-33.81869423 13.05270076 -33.44527504 9.21438648 -31.625 4.25 C-25.17625202 -5.67289741 -9.34122903 -4.79478218 0 0 Z " fill="#CACACA" transform="translate(495,268)"/>
<path d="M0 0 C1.65 0 3.3 0 5 0 C5.01458252 1.21582764 5.02916504 2.43165527 5.04418945 3.68432617 C5.10225098 8.20399078 5.1794836 12.72316127 5.26245117 17.24243164 C5.29566354 19.19677702 5.32370695 21.15121747 5.34643555 23.10571289 C5.38004933 25.91854282 5.43236854 28.73050447 5.48828125 31.54296875 C5.49467117 32.41398727 5.5010611 33.2850058 5.50764465 34.18241882 C5.62239645 38.93891133 5.94710617 42.12255749 9 46 C12.66174953 49.30738668 15.47454137 49.88487105 20.3125 50.25 C24.58966569 49.96002267 27.26890236 49.11194206 31 47 C35.36012415 41.9341286 35.60032554 37.82273724 35.609375 31.4453125 C35.62591125 30.54376434 35.64244751 29.64221619 35.65948486 28.71334839 C35.70784103 25.85049543 35.72930816 22.9881732 35.75 20.125 C35.77817006 18.17705681 35.80809893 16.22913821 35.83984375 14.28125 C35.91359666 9.52087705 35.96324688 4.76079657 36 0 C37.65 0 39.3 0 41 0 C41.09933715 5.83491118 41.17168936 11.66932337 41.21972656 17.50488281 C41.23976497 19.48739199 41.26700353 21.46984263 41.30175781 23.45214844 C41.35061954 26.31199641 41.37304673 29.17105881 41.390625 32.03125 C41.41127014 32.90865845 41.43191528 33.78606689 41.45318604 34.69006348 C41.45529658 40.55989778 40.4382538 45.14763297 37 50 C29.60250804 55.88779972 22.03826165 55.65030245 13 55 C8.12564637 53.8457413 5.11747461 51.61621581 2.31958008 47.48046875 C-0.59411688 42.61602445 -0.64774316 38.36930418 -0.48828125 32.8125 C-0.48120651 31.86938965 -0.47413177 30.9262793 -0.46684265 29.95458984 C-0.4390545 26.96888872 -0.37634651 23.98512558 -0.3125 21 C-0.28739694 18.96487101 -0.26458731 16.92971235 -0.24414062 14.89453125 C-0.18927904 9.92895103 -0.10311612 4.96480304 0 0 Z " fill="#D2D2D2" transform="translate(745,266)"/>
<path d="M0 0 C14.85 0 29.7 0 45 0 C45 1.32 45 2.64 45 4 C38.4 4 31.8 4 25 4 C25 20.5 25 37 25 54 C23.35 54 21.7 54 20 54 C20 37.5 20 21 20 4 C13.4 4 6.8 4 0 4 C0 2.68 0 1.36 0 0 Z " fill="#D1D1D1" transform="translate(837,266)"/>
<path d="M0 0 C1.65 0 3.3 0 5 0 C5 16.5 5 33 5 50 C14.9 50 24.8 50 35 50 C35 51.32 35 52.64 35 54 C23.45 54 11.9 54 0 54 C0 36.18 0 18.36 0 0 Z " fill="#D2D2D2" transform="translate(659,266)"/>
<path d="M0 0 C1.65 0 3.3 0 5 0 C5 17.82 5 35.64 5 54 C3.35 54 1.7 54 0 54 C0 36.18 0 18.36 0 0 Z " fill="#C7C7C7" transform="translate(933,266)"/>
<path d="M0 0 C0 0.66 0 1.32 0 2 C-1.328125 3.3046875 -1.328125 3.3046875 -3.25 4.875 C-7.12212838 8.17708434 -10.80877721 11.62283905 -14.4375 15.1875 C-14.96956055 15.69845215 -15.50162109 16.2094043 -16.04980469 16.73583984 C-19.65225324 20.27843006 -19.65225324 20.27843006 -21 25 C-21.66 24.34 -22.32 23.68 -23 23 C-22.75448355 19.09452734 -20.51542752 17.1286712 -17.8515625 14.453125 C-17.01109375 13.60878906 -16.170625 12.76445312 -15.3046875 11.89453125 C-13.97824219 10.58548828 -13.97824219 10.58548828 -12.625 9.25 C-11.7484375 8.36183594 -10.871875 7.47367188 -9.96875 6.55859375 C-9.12570313 5.71941406 -8.28265625 4.88023437 -7.4140625 4.015625 C-6.6401416 3.24508789 -5.8662207 2.47455078 -5.06884766 1.68066406 C-3 0 -3 0 0 0 Z " fill="#A78800" transform="translate(174,187)"/>
<path d="M0 0 C0.66 0.33 1.32 0.66 2 1 C-1.63 4.63 -5.26 8.26 -9 12 C-9.66 11.67 -10.32 11.34 -11 11 C-9.92173635 9.72486237 -8.83714481 8.45507431 -7.75 7.1875 C-7.14671875 6.47980469 -6.5434375 5.77210938 -5.921875 5.04296875 C-4.07629602 3.08110329 -2.20054668 1.54330375 0 0 Z " fill="#AAAAAA" transform="translate(823,139)"/>
<path d="M0 0 C0.66 0.33 1.32 0.66 2 1 C-0.64 3.64 -3.28 6.28 -6 9 C-6 6 -6 6 -3.5625 3.375 C-2.716875 2.59125 -1.87125 1.8075 -1 1 C-0.67 0.67 -0.34 0.34 0 0 Z " fill="#A3A3A3" transform="translate(1006,268)"/>
<path d="M0 0 C0.66 0.33 1.32 0.66 2 1 C-0.64 3.64 -3.28 6.28 -6 9 C-6 6 -6 6 -3.5625 3.375 C-2.716875 2.59125 -1.87125 1.8075 -1 1 C-0.67 0.67 -0.34 0.34 0 0 Z " fill="#A3A3A3" transform="translate(566,268)"/>
</svg>
