<?xml version="1.0" encoding="UTF-8"?>
<svg version="1.1" xmlns="http://www.w3.org/2000/svg" width="1325" height="297">
<path d="M0 0 C5.46341463 2.92682927 5.46341463 2.92682927 7 6 C7.09604392 7.54304388 7.12916901 9.09019923 7.13142776 10.63622761 C7.13526891 11.61944376 7.13911005 12.60265992 7.1430676 13.6156705 C7.14220112 14.70368164 7.14133463 15.79169278 7.14044189 16.91267395 C7.14341302 18.06241674 7.14638414 19.21215952 7.1494453 20.396743 C7.15664046 23.59782362 7.15930577 26.79887161 7.16004276 29.99995911 C7.16189051 33.44859237 7.16943645 36.89721393 7.17617798 40.34584045 C7.18977348 47.89127003 7.19578795 55.43669431 7.20018864 62.9821341 C7.20294908 67.69155315 7.20718608 72.40097014 7.21169281 77.1103878 C7.22388721 90.14355878 7.23418609 103.17672811 7.2375679 116.20990467 C7.23789725 117.46171215 7.23789725 117.46171215 7.23823325 118.73880867 C7.23856067 119.99365143 7.23856067 119.99365143 7.2388947 121.27384454 C7.23933817 122.96910274 7.23978473 124.66436094 7.24023438 126.35961914 C7.2404558 127.20052995 7.24067723 128.04144076 7.24090537 128.90783372 C7.24485398 142.53579121 7.26230913 156.16369525 7.2855939 169.79163209 C7.3092946 183.77562515 7.32176917 197.75959137 7.32293582 211.74360484 C7.32385332 219.59817615 7.32962439 227.45267783 7.34775543 235.30723 C7.36313917 241.99531248 7.36828715 248.68330382 7.36001733 255.37140063 C7.35610461 258.78467678 7.35707041 262.19776928 7.37107468 265.61102295 C7.38370506 269.30963345 7.37796558 273.00776854 7.36749268 276.70637512 C7.37554908 277.78769409 7.38360548 278.86901307 7.39190602 279.98309928 C7.33161563 289.05010567 7.33161563 289.05010567 4 293 C1.0587574 295.28763313 -2.02451149 295.34499209 -5.68292236 295.30062866 C-10.20286093 294.71419036 -14.03883785 292.51215065 -18.0546875 290.45703125 C-19.53205887 289.72526421 -19.53205887 289.72526421 -21.03927612 288.97871399 C-23.20404567 287.90546652 -25.36558458 286.82568457 -27.52429199 285.74029541 C-31.14213052 283.9288349 -34.77375975 282.14822951 -38.41113281 280.37646484 C-44.3170908 277.49724244 -50.21106408 274.59474764 -56.09659195 271.67399406 C-59.47763607 269.9964818 -62.8612783 268.32474146 -66.25146484 266.66577148 C-69.60398899 265.02508037 -72.94940878 263.37068552 -76.29027939 261.70639992 C-77.54530199 261.08405052 -78.80270204 260.46646917 -80.06259537 259.85404015 C-81.81143537 259.00279587 -83.55071618 258.13199814 -85.28955078 257.26049805 C-86.27496857 256.77405319 -87.26038635 256.28760834 -88.27566528 255.78642273 C-91.52539535 253.65548352 -93.9647369 251.29715641 -96 248 C-96.63199902 244.58504772 -96.63199902 244.58504772 -96.64164734 240.77128601 C-96.65440562 239.71343949 -96.65440562 239.71343949 -96.66742164 238.63422233 C-96.68962042 236.28256932 -96.67627735 233.93250945 -96.6628418 231.58081055 C-96.67125854 229.89010489 -96.68178525 228.19940862 -96.69425964 226.50872803 C-96.72130235 221.92374791 -96.71660768 217.3393121 -96.70455909 212.75428748 C-96.69742292 208.92242252 -96.70593067 205.09065791 -96.71446449 201.2588008 C-96.73441591 192.21516645 -96.7288501 183.17179642 -96.70678711 174.12817383 C-96.68443974 164.80989198 -96.70200223 155.49230351 -96.73983639 146.17408723 C-96.77111055 138.16449646 -96.77897366 130.15511988 -96.76788265 122.14547569 C-96.761406 117.36585958 -96.7633473 112.58664318 -96.78720665 107.80707359 C-96.80851439 103.30959017 -96.80040904 98.81308111 -96.77011299 94.31565857 C-96.76380394 92.66979462 -96.767602 91.02385443 -96.78252411 89.37804604 C-96.85840149 80.26715322 -96.68479039 72.94023824 -90 66 C-87.42184197 63.53952293 -84.75523112 61.30587079 -81.9375 59.125 C-80.42380388 57.91751271 -78.91078997 56.70916975 -77.3984375 55.5 C-76.65432617 54.91089844 -75.91021484 54.32179687 -75.14355469 53.71484375 C-72.06110557 51.24888446 -69.05995532 48.69301657 -66.0625 46.125 C-62.44362845 43.04162438 -58.79237979 40.01128484 -55.0625 37.0625 C-50.97583877 33.82501513 -47.01054938 30.46597253 -43.0625 27.0625 C-34.67905469 19.84070446 -26.12199467 12.85635526 -17.4375 6 C-16.8290625 5.51845459 -16.220625 5.03690918 -15.59375 4.54077148 C-10.18486714 0.29170152 -6.85349237 -0.86243612 0 0 Z " fill="#0540B5" transform="translate(362,2)"/>
<path d="M0 0 C3.24599248 0.84701824 5.14177445 2.06384103 7.3203125 4.60546875 C8.28577675 7.50186151 8.44906252 9.33503236 8.45732689 12.3463335 C8.46240143 13.32744061 8.46747597 14.30854772 8.47270429 15.31938535 C8.47320205 16.39991058 8.47369981 17.48043581 8.47421265 18.59370422 C8.48078603 20.31241636 8.48078603 20.31241636 8.4874922 22.06584996 C8.49856041 25.25133476 8.50510574 28.43679183 8.50967336 31.62229145 C8.51562993 35.05593349 8.52723949 38.48955743 8.53796387 41.92318726 C8.56248432 50.21717117 8.57711332 58.51116108 8.59002393 66.80517009 C8.59373575 69.14725782 8.59770898 71.48934496 8.6017766 73.8314321 C8.62701003 88.37246247 8.64906518 102.91349378 8.66150475 117.45454121 C8.66443448 120.82247738 8.66739614 124.19041351 8.67041016 127.55834961 C8.67115621 128.39544199 8.67190226 129.23253438 8.67267092 130.0949932 C8.68532944 143.6608189 8.71855965 157.22651368 8.76021199 170.79227815 C8.80261472 184.71641578 8.82619774 198.64048635 8.83142531 212.56468838 C8.83484103 220.38412495 8.84661519 228.20335681 8.87952805 236.02272987 C8.9075068 242.68078787 8.9185375 249.33859919 8.90733258 255.99671141 C8.90214047 259.39404477 8.90506732 262.79086137 8.92979813 266.18811989 C8.95236744 269.87127556 8.94424974 273.55312152 8.92831421 277.23628235 C8.94913734 278.84703194 8.94913734 278.84703194 8.97038114 280.49032193 C8.88412084 288.55936297 8.88412084 288.55936297 6.01278114 292.2457304 C3.20131391 294.70976171 1.26688713 295.65370471 -2.49276733 295.83032227 C-12.57422662 294.79377251 -23.17428141 287.52208661 -32.140625 283.04296875 C-33.82063169 282.20618399 -35.50069657 281.36951606 -37.18081665 280.53295898 C-40.68365125 278.78749861 -44.18484184 277.03878955 -47.68505859 275.28808594 C-52.16652835 273.04724895 -56.65342563 270.81751775 -61.14177513 268.59049988 C-64.605196 266.86990575 -68.06495828 265.14205551 -71.52373123 263.41213989 C-73.17702791 262.58666971 -74.831619 261.76378668 -76.48752975 260.943573 C-78.79813274 259.79807561 -81.10344069 258.64253902 -83.40771484 257.484375 C-84.42856171 256.98238083 -84.42856171 256.98238083 -85.47003174 256.47024536 C-89.17788271 254.59165378 -92.10298921 252.88341703 -94.6796875 249.60546875 C-95.18025875 246.41261482 -95.18025875 246.41261482 -95.18089294 242.55911255 C-95.18919454 241.49452893 -95.18919454 241.49452893 -95.19766384 240.40843856 C-95.2112787 238.02991157 -95.1962975 235.65243244 -95.18139648 233.27392578 C-95.18517945 231.56880243 -95.1906793 229.86368215 -95.19776917 228.15856934 C-95.2117462 223.52618932 -95.20053734 218.89417981 -95.18405795 214.26182032 C-95.17021686 209.41460529 -95.17666663 204.56741198 -95.18019104 199.72018433 C-95.18289442 191.57755559 -95.16940831 183.43507415 -95.14624023 175.29248047 C-95.11964755 165.88120157 -95.11787726 156.47016925 -95.1296286 147.05886567 C-95.14041329 138.00542749 -95.13421271 128.95207842 -95.12007332 119.89864731 C-95.11431772 116.04630296 -95.1143929 112.19402392 -95.11913872 108.34167862 C-95.12391586 103.80260968 -95.11377624 99.26381019 -95.09218407 94.72479248 C-95.08662542 93.05993432 -95.08614244 91.39505022 -95.09113693 89.73019028 C-95.09710543 87.45509322 -95.0845554 85.18081557 -95.06736755 82.90579224 C-95.06493766 81.63338243 -95.06250776 80.36097263 -95.06000423 79.05000496 C-94.32422509 72.38603864 -91.00998282 68.49626084 -86.1171875 64.23046875 C-85.58343506 63.75351562 -85.04968262 63.2765625 -84.49975586 62.78515625 C-80.54472463 59.28160722 -76.46342303 55.95432159 -72.3046875 52.6953125 C-69.22975277 50.24726179 -66.23430779 47.71601796 -63.2421875 45.16796875 C-59.25292882 41.77334968 -55.24298324 38.41170211 -51.1796875 35.10546875 C-47.13984579 31.8172255 -43.14905897 28.47792036 -39.1796875 25.10546875 C-34.32272329 20.98460255 -29.46077776 16.87314582 -24.4921875 12.88671875 C-22.45138699 11.23140278 -20.46799831 9.55305321 -18.4921875 7.82421875 C-12.70292435 2.88707347 -8.02203572 -0.80688114 0 0 Z " fill="#0540B5" transform="translate(94.6796875,-0.60546875)"/>
<path d="M0 0 C11.88 0 23.76 0 36 0 C36.33 26.73 36.66 53.46 37 81 C40.3 77.7 43.6 74.4 47 71 C64.70872454 57.42746816 86.67745172 53.81431544 108.40869141 56.27246094 C123.6745741 58.62618734 137.62197642 65.61967625 149 76 C149.6084375 76.51691406 150.216875 77.03382812 150.84375 77.56640625 C165.09559538 90.49023877 172.92339825 111.34733829 175 130 C175.62582418 144.10828005 176.04761859 158.35560831 172 172 C171.6596875 173.16015625 171.319375 174.3203125 170.96875 175.515625 C166.20756814 190.12087205 158.82561525 201.31787597 148 212 C147.32066406 212.67804688 146.64132812 213.35609375 145.94140625 214.0546875 C128.82208956 230.07068024 107.50213723 232.84373532 85.05322266 232.17480469 C65.92467559 231.07964719 50.24447795 221.24447795 37 208 C36.67 215.26 36.34 222.52 36 230 C24.12 230 12.24 230 0 230 C0 154.1 0 78.2 0 0 Z M46.1875 108.3125 C36.03501552 122.08060985 34.48297944 139.13290741 36.4296875 155.64453125 C38.93707648 169.43517066 45.24911536 182.40398786 56.6015625 190.9609375 C69.25705724 199.40981708 82.38000909 203.1104141 97.5703125 200.3515625 C112.71667274 196.45678415 123.39308985 188.12307503 131.4296875 174.87890625 C139.83057508 159.47727903 141.06170776 140.95876089 136.3125 124.1875 C131.47405088 110.24036909 123.5984898 99.45239857 110.51171875 92.1796875 C86.66581052 80.97989856 62.56005604 88.78592343 46.1875 108.3125 Z " fill="#0540B5" transform="translate(805,33)"/>
<path d="M0 0 C1.52259223 1.32871376 3.02335709 2.68290112 4.5 4.0625 C5.27730469 4.76117188 6.05460937 5.45984375 6.85546875 6.1796875 C20.84461702 19.34870145 29.93838023 39.51562818 30.59179688 58.76708984 C30.63419807 61.88711083 30.63639479 65.00472704 30.625 68.125 C30.62886719 69.18783203 30.63273437 70.25066406 30.63671875 71.34570312 C30.63478516 72.89354492 30.63478516 72.89354492 30.6328125 74.47265625 C30.63168457 75.40215088 30.63055664 76.33164551 30.62939453 77.28930664 C30.5 80.0625 30.5 80.0625 29.5 86.0625 C-13.4 86.0625 -56.3 86.0625 -100.5 86.0625 C-96.26864411 101.93008459 -92.78795977 113.53107822 -78.5 122.5 C-65.52791476 129.63061828 -51.49056566 130.96337564 -37.25390625 126.97265625 C-30.43680693 124.7196291 -24.30755253 121.5085718 -19.5 116.0625 C-19.03303711 114.82741699 -19.03303711 114.82741699 -18.55664062 113.56738281 C-17.28107969 110.23756137 -16.2037096 108.42523016 -13.5 106.0625 C-7.13684268 104.29776649 -0.14175592 105.131955 6.375 105.4375 C8.22644316 105.48768777 10.07801607 105.53331049 11.9296875 105.57421875 C16.45633423 105.68416542 20.97674684 105.85652308 25.5 106.0625 C23.8972312 116.63802649 18.30015 125.0117477 11.5 133.0625 C11.05269531 133.65417969 10.60539062 134.24585938 10.14453125 134.85546875 C-1.43843361 149.69932694 -20.35577783 157.39664898 -38.5 160.0625 C-67.58236868 161.78891589 -90.04891482 157.21743958 -112.6328125 138.2734375 C-127.34565612 124.7145424 -136.43481302 103.39263571 -137.72216797 83.65649414 C-137.8398495 79.93487899 -137.88044159 76.22346966 -137.875 72.5 C-137.87412384 71.84086609 -137.87324768 71.18173218 -137.87234497 70.50262451 C-137.77661019 48.61083065 -132.53378156 29.21802455 -118.5 12.0625 C-117.97019531 11.35867187 -117.44039062 10.65484375 -116.89453125 9.9296875 C-105.214192 -4.77888785 -86.21623111 -12.27794016 -68.2578125 -15.5234375 C-44.23694665 -18.17022729 -19.60233504 -15.15550904 0 0 Z M-91.5 32.0625 C-96.33968794 39.97441814 -98.63752536 46.75012679 -100.5 56.0625 C-69.81 56.0625 -39.12 56.0625 -7.5 56.0625 C-7.5 44.0200269 -10.99683363 35.77589804 -19.3125 27.19140625 C-28.72791138 18.36445808 -40.65926615 14.32127013 -53.5 13.6875 C-68.56569545 14.46175416 -82.15578879 19.9730968 -91.5 32.0625 Z " fill="#0540B5" transform="translate(1136.5,104.9375)"/>
<path d="M0 0 C0.78632812 0.64453125 1.57265625 1.2890625 2.3828125 1.953125 C3.08664062 2.49453125 3.79046875 3.0359375 4.515625 3.59375 C21.4228498 17.25213553 29.99470004 38.88417023 32.3828125 59.953125 C33.75589465 85.85359232 29.15243582 110.01579071 11.8515625 130.2578125 C-3.12956099 146.61378594 -23.36749414 157.60674096 -45.75170898 159.17236328 C-72.39643829 160.12961098 -95.7541212 155.7075173 -116.07861328 137.40625 C-132.25412776 122.12909002 -141.18769727 100.91716773 -141.85546875 78.77734375 C-142.26999587 52.39010179 -138.17084247 30.46876437 -120.6171875 9.953125 C-120.00488281 9.22867188 -119.39257812 8.50421875 -118.76171875 7.7578125 C-89.66975389 -23.87737316 -33.18690886 -25.95513469 0 0 Z M-92.6171875 29.953125 C-104.45290853 45.49963562 -107.18211346 63.85449281 -104.8671875 82.890625 C-102.71529297 96.68367121 -96.96956017 110.26343245 -85.6171875 118.953125 C-72.24540491 126.95724988 -59.17649018 130.22035688 -43.6171875 126.890625 C-29.14508774 122.79402533 -18.90592392 114.66474086 -11.15625 101.9609375 C-2.87326626 85.77338045 -2.15025208 65.14083862 -7.6171875 47.953125 C-12.3333666 35.64873465 -21.0438489 24.71613696 -32.98828125 18.7734375 C-53.30390932 10.08937808 -77.29582449 13.04119676 -92.6171875 29.953125 Z " fill="#0540B5" transform="translate(742.6171875,106.046875)"/>
<path d="M0 0 C35.07849092 -3.45803406 35.07849092 -3.45803406 44.09033203 1.8046875 C48.81123415 6.65732148 51.22470012 12.61049707 53.65429688 18.84716797 C55.93690793 24.19507057 59.21602858 28.86806818 62.4375 33.6875 C63.54503454 35.41759227 64.64806141 37.15058022 65.74609375 38.88671875 C66.53282471 40.12301025 66.53282471 40.12301025 67.33544922 41.38427734 C70.22363281 45.92285156 73.11181641 50.46142578 76 55 C79.09882834 52.29875261 80.98266124 48.91928891 83.02734375 45.41015625 C83.81933834 44.0631046 84.61141516 42.7161013 85.40356445 41.36914062 C85.81595367 40.6650708 86.2283429 39.96100098 86.65322876 39.2355957 C87.9467964 37.04676971 89.26513412 34.87472817 90.59057617 32.70507812 C94.40877356 26.41353366 98.04824427 20.37454537 100.5859375 13.43359375 C104.72037667 2.86031869 104.72037667 2.86031869 110 0 C122.16154826 -2.90476941 135.69585621 -1.18414176 148 0 C146.42563971 4.11393019 144.42613253 7.57205446 141.9375 11.1875 C141.0299584 12.52777216 140.12381806 13.86899376 139.21875 15.2109375 C138.71085937 15.96342773 138.20296875 16.71591797 137.6796875 17.49121094 C134.39042395 22.40407027 131.16838889 27.36114347 127.9375 32.3125 C126.84172214 33.99068962 125.74594395 35.66887904 124.65013123 37.3470459 C123.90408684 38.4896513 123.15812594 39.6323112 122.4122467 40.77502441 C119.73534399 44.87573775 117.0541622 48.97363126 114.37109375 53.0703125 C113.23695327 54.80257852 112.10286224 56.5348769 110.96878052 58.2671814 C109.91181693 59.88127666 108.85423502 61.49496697 107.79663086 63.10864258 C106.49301235 65.10057933 105.19563135 67.09661563 103.90527344 69.09716797 C102.60115622 71.08409181 101.25838478 73.04602995 99.88378906 74.98486328 C99.2234668 75.93989746 98.56314453 76.89493164 97.8828125 77.87890625 C97.28098145 78.72138916 96.67915039 79.56387207 96.05908203 80.43188477 C94.6958776 83.04075935 94.6958776 83.04075935 95.69726562 86.12011719 C97.2564546 89.56693001 99.21573292 92.59941201 101.375 95.6875 C102.28592711 97.0220249 103.19468443 98.35803277 104.1015625 99.6953125 C104.57754883 100.39688477 105.05353516 101.09845703 105.54394531 101.82128906 C108.01782072 105.52297654 110.38322553 109.2917667 112.75 113.0625 C113.49842163 114.2525061 113.49842163 114.2525061 114.26196289 115.46655273 C115.30364446 117.12288399 116.3450618 118.77938145 117.38623047 120.43603516 C120.18393787 124.88104621 122.99621609 129.3167412 125.8125 133.75 C126.67077393 135.10327393 126.67077393 135.10327393 127.54638672 136.48388672 C130.72862127 141.48605258 133.9514499 146.45784407 137.22265625 151.40234375 C138.26232544 152.97773926 138.26232544 152.97773926 139.32299805 154.58496094 C140.6686779 156.61957123 142.02021184 158.65032435 143.37817383 160.67675781 C143.98298584 161.59166992 144.58779785 162.50658203 145.2109375 163.44921875 C145.75024902 164.25705811 146.28956055 165.06489746 146.84521484 165.8972168 C148 168 148 168 148 171 C142.43188811 171.24815034 136.86702209 171.42906728 131.29467773 171.54931641 C129.40185471 171.59945527 127.50941618 171.66759108 125.61791992 171.75439453 C110.00732137 172.45257968 110.00732137 172.45257968 105.40893555 169.125 C103.55258701 166.50683948 102.29245314 163.9344982 101 161 C99.86779146 159.16639856 98.70943397 157.34872214 97.52734375 155.546875 C96.32824425 153.61612438 95.13171284 151.68377694 93.9375 149.75 C92.63359465 147.65055569 91.32888651 145.55160979 90.0234375 143.453125 C89.36311523 142.39158203 88.70279297 141.33003906 88.02246094 140.23632812 C84.73250651 134.97176561 81.39984304 129.73460855 78.0625 124.5 C77.4533374 123.54448242 76.8441748 122.58896484 76.21655273 121.60449219 C74.81184099 119.40247854 73.40640593 117.20093183 72 115 C68.87247641 118.72269975 66.31149211 122.6271084 63.875 126.8203125 C63.08640238 128.16619269 62.29749059 129.51188884 61.50830078 130.85742188 C61.10001038 131.55536865 60.69171997 132.25331543 60.27105713 132.97241211 C58.98668416 135.14755092 57.67847923 137.30656814 56.36279297 139.46289062 C50.80806016 148.60741245 50.80806016 148.60741245 46.3828125 158.3359375 C42.22757939 168.31228101 42.22757939 168.31228101 37 171 C25.1152904 173.72683902 12.01146833 172.12961951 0 171 C1.67990574 166.61513753 3.86386391 162.76623476 6.375 158.8125 C6.82141846 158.10456299 7.26783691 157.39662598 7.7277832 156.66723633 C11.27167983 151.07842967 14.92059757 145.56372109 18.609375 140.06982422 C25.44977666 129.87105828 32.16579036 119.59001045 38.90307617 109.32299805 C39.38791977 108.58471268 39.87276337 107.84642731 40.37229919 107.08576965 C41.31613374 105.64705866 42.25836367 104.20729353 43.1988678 102.7664032 C46.08456289 98.35314771 49.05013342 94.01190992 52.17626953 89.76391602 C53.17850229 88.01877205 53.17850229 88.01877205 52.77246094 86.00244141 C51.97318603 83.93049047 51.04880561 82.15933662 49.8828125 80.26953125 C49.44670654 79.55829102 49.01060059 78.84705078 48.5612793 78.11425781 C48.08730713 77.35467773 47.61333496 76.59509766 47.125 75.8125 C46.63104736 75.01295898 46.13709473 74.21341797 45.62817383 73.38964844 C41.4851908 66.7119567 37.22633133 60.11191266 32.9375 53.52734375 C29.05615633 47.56123204 25.24316217 41.55171659 21.42944336 35.54223633 C18.32237523 30.64665117 15.20488054 25.75833812 12.06640625 20.8828125 C11.42743408 19.88725342 10.78846191 18.89169434 10.13012695 17.8659668 C8.90416068 15.95641408 7.67498122 14.04891933 6.44213867 12.14379883 C5.88888916 11.28036865 5.33563965 10.41693848 4.765625 9.52734375 C4.27868164 8.77187256 3.79173828 8.01640137 3.29003906 7.23803711 C1.93749036 4.89155453 0.945679 2.5347435 0 0 Z " fill="#0540B5" transform="translate(1177,92)"/>
<path d="M0 0 C49.5 0 99 0 150 0 C150 9.9 150 19.8 150 30 C131.19 30 112.38 30 93 30 C93 91.38 93 152.76 93 216 C81.45 216 69.9 216 58 216 C56.32286809 214.32286809 56.87781492 212.26784234 56.87091869 210.02889246 C56.87528795 208.95352357 56.87528795 208.95352357 56.87974548 207.85643005 C56.87889106 207.10011844 56.87803663 206.34380683 56.87715632 205.56457669 C56.87549924 203.01104518 56.88102658 200.45757827 56.88647461 197.90405273 C56.88675646 196.08126833 56.88659879 194.2584838 56.8860321 192.43569946 C56.88574404 187.47103112 56.89164221 182.50638672 56.89860606 177.54172397 C56.90483812 172.35936525 56.90544328 167.17700605 56.90663147 161.99464417 C56.90974522 152.17382442 56.91795921 142.35301574 56.92798096 132.53220087 C56.93914073 121.35464094 56.9446522 110.17708048 56.94967639 98.99951637 C56.96014179 75.99967002 56.97848781 52.99983885 57 30 C38.19 30 19.38 30 0 30 C0 20.1 0 10.2 0 0 Z " fill="#0540B5" transform="translate(431,47)"/>
<path d="M0 0 C2.93087207 2.25451698 3.82814288 3.48442865 5 7 C5.09227412 8.39747712 5.13055356 9.79891574 5.13371277 11.19943237 C5.14011024 12.48214523 5.14011024 12.48214523 5.14663696 13.79077148 C5.14595718 15.1934729 5.14595718 15.1934729 5.14526367 16.62451172 C5.14862228 17.61178253 5.1519809 18.59905334 5.15544128 19.61624146 C5.16495804 22.88740286 5.16689478 26.15851311 5.16796875 29.4296875 C5.17118088 31.70028708 5.17454492 33.97088645 5.17805481 36.2414856 C5.18404793 41.00458252 5.18589453 45.76766129 5.18530273 50.53076172 C5.18520111 56.63633374 5.19885249 62.74178946 5.21607494 68.84733391 C5.2271896 73.53818294 5.2292221 78.22900381 5.22869301 82.91986465 C5.22987396 85.1709343 5.23430218 87.42200466 5.24202538 89.67306137 C5.25181414 92.82102366 5.24895149 95.96873292 5.24291992 99.11669922 C5.24853943 100.04778503 5.25415894 100.97887085 5.25994873 101.93817139 C5.2196825 110.20149719 5.2196825 110.20149719 3 114 C-7.0760442 120.43151757 -21.50933532 114.91295155 -32.48828125 112.76171875 C-34.16210676 112.43633485 -35.83595048 112.11104458 -37.5098114 111.7858429 C-40.9976761 111.10654353 -44.48456339 110.42245209 -47.97094727 109.7355957 C-52.42800885 108.85845202 -56.88830775 107.99911708 -61.34963703 107.14398479 C-64.79934568 106.4797173 -68.24657035 105.80320523 -71.69322777 105.12330055 C-73.33692599 104.80113483 -74.98149961 104.48340106 -76.6269474 104.17029381 C-78.92632341 103.73144192 -81.22167214 103.27544221 -83.5168457 102.81518555 C-84.18864868 102.69087662 -84.86045166 102.56656769 -85.5526123 102.43849182 C-90.41910422 101.4351514 -94.44790616 99.55209384 -98 96 C-98.12036823 94.00226455 -98.1702438 92.00025392 -98.19287109 89.99902344 C-98.20893402 88.71388855 -98.22499695 87.42875366 -98.24154663 86.10467529 C-98.25303434 84.6895819 -98.26364284 83.27448113 -98.2734375 81.859375 C-98.27876118 81.14941628 -98.28408485 80.43945755 -98.28956985 79.70798492 C-98.31632383 75.94807514 -98.33568884 72.18819877 -98.35009766 68.42822266 C-98.36672468 64.54631953 -98.41147791 60.66526891 -98.4624691 56.78368759 C-98.49615587 53.79820805 -98.5076767 50.81293011 -98.51332474 47.82727814 C-98.52003663 46.39672605 -98.53525748 44.96618721 -98.55921555 43.53582001 C-98.59088221 41.53029856 -98.58790105 39.52432129 -98.58349609 37.51855469 C-98.59158295 36.37795593 -98.5996698 35.23735718 -98.60800171 34.06219482 C-97.79131776 29.9489739 -96.27087101 28.56748317 -93 26 C-89.97627258 24.59716797 -89.97627258 24.59716797 -86.56762695 23.4921875 C-85.94232086 23.28491028 -85.31701477 23.07763306 -84.67276001 22.86407471 C-82.615747 22.18634738 -80.55246881 21.53051678 -78.48828125 20.875 C-77.03599616 20.40209344 -75.58411351 19.92794942 -74.13261414 19.45263672 C-71.08666452 18.45856115 -68.03777087 17.47436552 -64.98608398 16.49804688 C-61.12802468 15.26370953 -57.27545411 14.01327855 -53.42465401 12.75650024 C-44.30121312 9.77928957 -35.15980678 6.86330881 -26 4 C-24.97066345 3.67676758 -23.9413269 3.35353516 -22.88079834 3.02050781 C-20.37783217 2.24332604 -17.86980144 1.4894306 -15.35546875 0.75 C-14.69549393 0.5452002 -14.0355191 0.34040039 -13.35554504 0.12939453 C-8.52427115 -1.23372474 -4.85178744 -0.9546393 0 0 Z " fill="#0540B5" transform="translate(231,87)"/>
</svg>
